<svg xmlns="http://www.w3.org/2000/svg" viewBox="0 0 980 980" fill="none" shape-rendering="auto" aria-hidden="true"><!-- Generated by DiceBear (https://www.dicebear.com) --><metadata xmlns:rdf="http://www.w3.org/1999/02/22-rdf-syntax-ns#" xmlns:xsi="http://www.w3.org/2001/XMLSchema-instance" xmlns:dc="http://purl.org/dc/elements/1.1/" xmlns:dcterms="http://purl.org/dc/terms/"><rdf:RDF><rdf:Description><dc:title>Lorelei</dc:title><dc:creator>Lisa Wischofsky</dc:creator><dc:source xsi:type="dcterms:URI">https://www.figma.com/community/file/1198749693280469639</dc:source><dcterms:license xsi:type="dcterms:URI">https://creativecommons.org/publicdomain/zero/1.0/</dcterms:license><dc:rights>Remix of “Lorelei” (https://www.figma.com/community/file/1198749693280469639) by “Lisa Wischofsky”, licensed under “CC0 1.0” (https://creativecommons.org/publicdomain/zero/1.0/)</dc:rights></rdf:Description></rdf:RDF></metadata><defs><g id="eyes-variant07-c133ba16"><path d="M91 15q23-1 43 11t28 34q4 6 1 12-7-5-12-13-9-13-22-22-18-11-38-10-23 4-38 19L40 57q-5-7 1-15 18-24 50-27m230 2q8 3 12 11 4 13-1 25-2 5-7 5-5-2-5-9 2-10-1-19-4-4-10-4-14 1-24 8-18 10-28 28-1 4-5 5-2-4 0-10 8-20 26-32 11-7 21-9 11-3 22 1" fill="#000000"/><path d="M289 42q9 2 11 12 3 13-3 24 15-3 29-10c-4 9-15 14-24 18q-15 7-31 8-8 1-13-4 4-6 11-6-3-9-2-19 1-9 7-16 6-6 15-7M129 52q6-2 11 4 5 5 7 13 2 10 0 22h13q4 1 3 4-2 4-7 4-16 5-33 4-26 0-50-10-8-2-14-8l11 3q19 4 38 5-5-16 1-28 7-12 20-13" fill="#000000"/></g><g id="eyebrows-variant13-c133ba16"><path d="m327 63 2 2-14 14-21 15-27 18q-6 5-13 7l-8 1-11 20h-2q-2-10 1-20 2-10 8-16l10-4 31-21q12-9 26-13zM10 72q15 0 28 2l26 7 15 1 24 2q11 4 23 6l34 11 3-5q3-2 5 1 7 13 11 25 2 8-6 9-7 0-12-6l-11-9-30-9-20-5-15-3-15-4-24-9c-10-4-20-4-29-9q-5-1-7-5" fill="#000000"/></g><g id="freckles-variant01-c133ba16"><path d="M339 1q6-3 7 4-1 5-6 3c-3 0-4-6-1-7M29 9q4-2 7 1 5 5 0 9-4 5-9 0c-3-3-2-9 2-10m259 1q3-3 4 1 0 2-2 3-5 0-2-4m24 0q9-2 8 7-3 6-9 2-5-6 1-9m-173 2q4-2 5 3 0 4-5 3c-2 0-3-5 0-6m216 1q4-3 7 3-2 5-6 3t-1-6M75 13q8 2 6 9-2 4-6 4-3 0-5-4-3-8 5-9M3 21q5-1 6 5c0 3-5 5-7 2q-4-4 1-7m331 5q6-3 8 5-2 6-9 4-5-5 1-9m-221 3q4 1 5 5l-2 3q-5 3-8-2 0-6 5-6M47 42q6 1 8 7-1 6-7 7-5 0-7-5-1-7 6-9" fill="#000000"/></g><g id="nose-variant01-c133ba16"><path d="m42 0 3 15 3 26 8 13 6 12 5 14q5 7 5 16-1 15-14 20l-19 8q-7 5-15 5-8 1-14-5-1-3 3-5l12-3 16-5 13-5q10-4 7-14l-5-8-7-17-7-19q-6-12-5-26 0-11 4-22" fill="#000000"/></g><g id="mouth-sad06-c133ba16"><path d="M78 31h30l22 4q22 7 43 7l26 1q13 1 24 6 5 2 5 9l-7-2q-16-5-33-3 1 9-2 17h15l5 3q0 4-4 4h-23l-86-1-3 2-3-2-32-2q-7 1-13-3l18-1h25q-2-14 2-29-14 0-28 4-12 4-21 14l-7 11-2-1q-1-8 2-14 5-8 11-12 16-10 36-12m14 10q6 14 3 29h41q-2-12-1-22l-21-5q-10-2-22-2m52 9q1 9-2 20h39l-1-17q-18 1-36-3" fill="#000000"/></g><g id="head-variant02-c133ba16"><path d="M290 4c57-1 115 19 159 56q39 34 59 81c14 34 20 73 14 109q-1 8-4 12l-2-2 1-33A215 215 0 0 0 345 21 235 235 0 0 0 75 174q-18 57-6 115l17-1q4 0 6 3 1 3-2 4l-11 3q-21 5-37 19a63 63 0 0 0-22 45q-1 18 8 35 12 20 32 31 30 16 63 6h6q3 2 4 6l15 29q10 15 21 27 23 23 51 36 43 21 90 27 6 1 10 4 1 3-2 4l-11 1a231 231 0 0 1-147-62q8 26 8 54 0 17-7 33-6 15-18 27a196 196 0 0 1-61 43l3-3 17-14q19-17 35-38a93 93 0 0 0 16-65l-3-39-2-10q-7-8-12-17-9-15-14-31-11 3-22 3c-28 1-56-12-74-34a81 81 0 0 1-18-51q0-18 8-34 14-25 39-36-11-47-2-93 12-61 51-108C149 38 219 6 290 4" fill="#000000"/><path d="M345 21a214 214 0 0 1 172 206l-1 33v15q-3 2-3 5-3 27 1 55 7 43 2 88-4 43-30 79-26 31-63 43-21 7-44 12l-33 9q3 2 7 2l36-2q-7 11-10 26-1 15 10 26 10 10 24 14 8 3 17 3 11 13 14 30 3 18-8 34-15 20-37 30-27 13-58 18a352 352 0 0 1-191-24c-18-9-38-23-48-41q-7-11-7-25 28-14 48-37 12-12 18-27 7-16 7-33 0-28-8-54l19 16a235 235 0 0 0 128 46l11-1q2-1 2-4-4-3-10-4-47-6-90-27-28-13-51-36-11-12-21-27l-15-29q-1-4-4-6h-6a82 82 0 0 1-95-37q-8-17-8-35 2-28 22-45 16-14 37-19l11-3q3-1 2-4-2-3-6-3l-17 1q-12-58 6-115 21-59 69-101a236 236 0 0 1 201-52" fill="#ffffff"/><path d="m516 275 3 3 1 13 3 45q5 30 5 60 0 23-5 47-10 43-40 76-15 15-33 25-26 16-55 21c-1 8-5 16-4 25q0 8 5 14 13 13 28 20l18 9-12 2q-9 0-17-3-14-4-24-14-11-11-10-26 3-15 10-26-18 3-36 2-4 0-7-2l33-9q23-4 44-12 38-13 63-43 26-36 30-79 5-45-2-88-4-27-1-55 0-3 3-5M66 334q8 0 15 7 3 5 1 10l-11 22q-1 5 3 9l23 10-1 2H85q-9-1-17-6-9-6-7-17l11-23c-6-4-13-2-19-8q5-6 13-6" fill="#000000"/><use transform="translate(159 232)" href="#eyes-variant07-c133ba16"/><use transform="translate(164 126)" href="#eyebrows-variant13-c133ba16"/><use transform="translate(141 343)" href="#freckles-variant01-c133ba16"/><use transform="translate(359 274)" href="#nose-variant01-c133ba16"/><use transform="translate(223 402)" href="#mouth-sad06-c133ba16"/></g><g id="hair-variant10-c133ba16"><path d="m598 106 3 3q3 8 3 16 0 27-16 51 20-7 40-4 23 2 39 15 8 6 8 16-3 0-5-2-11-7-23-12-28-7-56 0 17 6 31 18 28 19 39 50 8 20 3 40l-2 7 2 9a244 244 0 0 1-2 120q-9 33-21 64-16 35-30 72-9 25-9 52l3 12 5 24q2 9 9 17 7 10 18 15 10 6 22 9 18 4 34 1l12-3q-11 9-24 12c-18 5-36-1-53-8l15 20q10 11 23 18l6 5-3 1q-5 10-16 12-12 4-24 2-15 0-30-6-12-4-21-14-11 21-32 31-12 6-24 4l-13-1-38-2-62-7q-31-3-64-2-33 0-66 12l-8 4q-21 12-46 13t-46-12q-6-3-8-9 0-5 5-8 12-10 22-24a91 91 0 0 1-79 14q-11-3-19-11-4-5-1-9 13 11 30 11l22-2q-17-3-32-12-18-10-26-28c-2-5-5-12-1-17q2-2 5-2 4 9 12 14 9 6 19 1 13-7 20-20a141 141 0 0 0 21-70l-2-34c-2-32-10-63-16-94a362 362 0 0 1-7-95 210 210 0 0 1 30-108c21-33 53-59 88-78q69-35 146-39 69-4 132 19 36-18 52-55z" fill="#000000"/><use transform="translate(131 168)" href="#head-variant02-c133ba16"/><path d="m598 106 3 4q3 7 3 16 0 27-16 50 20-7 40-4 23 2 39 15 8 6 8 17l-6-3q-10-7-22-12-27-7-56 0l18 8q34 21 51 57 8 19 4 39t-17 36a151 151 0 0 1-50 42q-7 4-14 4l10-11q13-12 16-29 1-20-4-38-9-28-28-50 10 41-5 81-9 20-25 36-12 11-27 16-4 1-7-1l6-14q6-12 7-26 1-34-8-66l-5-17q1 29-9 56a94 94 0 0 1-60 57q-8 3-14-1l18-12q14-9 23-22 7-8 11-18 13-23 12-51-3 18-12 33-15 29-39 52-22 21-50 31l-11 1-3-3 4-18q6-24 6-48l-17 28q-17 22-39 37-23 17-49 26a253 253 0 0 0-1 90q6 30 26 54l4 5q-7-2-13-7a97 97 0 0 1-29-47l1 37v16l-5-3-10-8q-16-9-28-22-16-19-23-43 0-5-3-6-21-20-35-46-17-27-18-59-2-49 24-90 31-46 79-73 72-39 152-44 65-3 128 16 5 3 10 1 15-7 26-19 19-18 26-43z" fill="#000000"/></g><clipPath id="clip-c133ba16"><rect width="980" height="980" rx="0" ry="0"/></clipPath></defs><g clip-path="url(#clip-c133ba16)"><rect width="980" height="980" fill="#b6e3f4"/><use transform="translate(76 3)" href="#hair-variant10-c133ba16"/></g></svg>