<svg xmlns="http://www.w3.org/2000/svg" viewBox="0 0 980 980" fill="none" shape-rendering="auto" aria-hidden="true"><!-- Generated by DiceBear (https://www.dicebear.com) --><metadata xmlns:rdf="http://www.w3.org/1999/02/22-rdf-syntax-ns#" xmlns:xsi="http://www.w3.org/2001/XMLSchema-instance" xmlns:dc="http://purl.org/dc/elements/1.1/" xmlns:dcterms="http://purl.org/dc/terms/"><rdf:RDF><rdf:Description><dc:title>Lorelei</dc:title><dc:creator>Lisa Wischofsky</dc:creator><dc:source xsi:type="dcterms:URI">https://www.figma.com/community/file/1198749693280469639</dc:source><dcterms:license xsi:type="dcterms:URI">https://creativecommons.org/publicdomain/zero/1.0/</dcterms:license><dc:rights>Remix of “Lorelei” (https://www.figma.com/community/file/1198749693280469639) by “Lisa Wischofsky”, licensed under “CC0 1.0” (https://creativecommons.org/publicdomain/zero/1.0/)</dc:rights></rdf:Description></rdf:RDF></metadata><defs><g id="eyes-variant14-04e17d4c"><path d="M330 11q9 4 13 12 4 12 1 25-2 7-9 8-9-1-9-10c1-8 4-15 1-23q0-3-4-4-9 0-17 5l4 8v21q-2 12-10 19l-10 8q-8 1-13-5-4-8-3-17l-5 9-4 3v-9a95 95 0 0 1 44-49q11-4 21-1m-215 6q27 10 46 34 5 6 7 14 1 4-1 6-6 0-8-5l-6 18q-4 6-12 10t-18 1q-9-5-14-14-7-14-4-29 2-12 8-21-20-9-42-2-14 5-18 21c-2 4 0 11-4 14q-5 6-11 1-5-5-3-11 2-19 16-30 8-6 18-9 24-6 46 2" fill="#000000"/></g><g id="eyebrows-variant04-04e17d4c"><path d="M315 23q6 2 9 8l-35 13-16 9q-10 6-22 8l-13 3-7 8-6 12-3-3q-2-9 2-16 3-10 8-18l9-10q8-4 15 0v6l25-13q16-9 34-7m-194 3c13 2 31 0 44 6q12 6 17 20l-1 3q-5 5-14 2l-9-8-8-2q-12-3-25-2c-12-1-23-7-36-8l-27-4-4-2q14-5 28-6 18-1 35 1" fill="#000000"/><path d="M180 29q8-3 16 2 7 6 10 15 1-6 5-11 11 4 13 14 4 9 0 16c-2 4-8 8-12 4q-6-8-6-17 0 5-5 9-5 3-8-2-4-5-6-12l-7-15z" fill="#000000"/></g><g id="nose-variant05-04e17d4c"><path d="m36 23 2 2 7 22 15 23q6 9 5 20-2 10-9 16-11 10-25 16-7 5-18 2l6-4 36-24q4-4 4-9-2-9-8-16-8-13-13-25-4-11-2-23" fill="#000000"/></g><g id="mouth-sad07-04e17d4c"><path d="M183 40q15-3 29-2 16 0 27 10 6 6 10 13 3 5-2 10-9 5-20 5h-42l-46 5q-14 2-29 2l4-5 9-9q13-11 29-17 15-7 31-12m-13 12a254 254 0 0 0-43 21q20-4 42-6-2-7 1-15m40-5q-16-2-33 3l-1 17 30-1q-2-10 4-19m6 1q1 10-5 18 15 1 29-1-8-10-18-16zm19-36q3-2 6 1 6 4 8 11 5 8 3 17-4-3-5-7l-11-16q-2-3-1-6" fill="#000000"/></g><g id="head-variant03-04e17d4c"><path d="M299 3q42 2 83 14 33 10 59 28 23 16 41 38 30 38 36 86a361 361 0 0 1 2 101l-5 34-4 20q-1 2-3 2l-3-12 3-44q2-36 1-72-2-23-6-45-10-43-40-75-28-27-63-43-33-14-67-19-27-4-54-5a277 277 0 0 0-128 30q-20 13-35 32-18 23-30 50-20 42-24 89-5 36 7 70 4 7 6 15 7-1 12 1 3 2 1 3l-10 3q-15 3-29 12-11 7-18 19-6 15-2 32 9 31 33 50 19 13 40 16l30-1q7 7 11 17l18 27a136 136 0 0 0 66 50q33 12 67 19l42 8q8 1 17 5 2 2-1 3l-11 1a535 535 0 0 1-67-9 255 255 0 0 1-84-32q-16-12-30-27a214 214 0 0 1-15 123q-24 42-70 57-5 2-10 1-2-1-2-3 1-4 6-6 19-11 37-24 21-15 31-38t13-48q3-20 2-40l-4-38-18-36q-9 3-19 3a88 88 0 0 1-75-37 93 93 0 0 1-20-58q0-14 8-25 7-11 19-17 8-5 18-8l-9-24q-8-33-3-67a292 292 0 0 1 64-149q12-15 29-26l20-9Q228-2 299 3" fill="#000000"/><path d="M279 11q27 1 54 5 34 5 67 19 34 15 63 43 30 32 40 75 5 22 6 45 1 36-1 72l-3 44 3 12-1 20q-3 8-2 15l-6 75q-1 19-8 36-5 13-15 24-20 19-43 33-29 14-59 23l-13 9q12 1 24-2-6 17-7 36l2 16q4 8 13 11 17 9 35 14l65 27 6 11q9 17 3 36-8 19-27 31-25 16-55 23-56 14-113 11-63-1-122-18-30-8-58-23-23-12-40-32-10-12-12-28a122 122 0 0 0 85-107q7-36 0-73 13 15 30 27l26 14q27 13 58 18a331 331 0 0 0 67 9l11-1q3-1 1-3-9-4-17-5l-42-8q-34-7-67-19-21-9-39-22-15-12-27-28l-18-27q-4-10-11-17l-30 1q-21-3-40-16a94 94 0 0 1-33-50q-4-17 2-32 7-12 18-19 14-9 29-12l10-3q2-2-1-3-5-2-12-1-2-8-6-15-12-34-7-70a276 276 0 0 1 54-139q15-19 35-32 17-9 35-15 45-16 93-15" fill="#ffffff"/><path d="M63 340q6-1 12 1 9 2 14 9 3 5-1 9c-4 7-11 10-15 17l21 9q6 1 11 6l1 2q-4 1-8-1l-24-7q-7-1-9-7-1-6 3-10l15-14c-5-6-16-7-20-14m444 6q2 1 2 3l2 16a483 483 0 0 1-2 89q-2 17-11 32-8 16-22 27a198 198 0 0 1-84 44c0 15-3 32-1 48q1 3 5 5 13 7 27 11a451 451 0 0 1 68 29q11 6 18 15-9 0-16-2l-65-27q-18-5-35-14-9-3-13-11-3-8-2-16 1-19 7-36-12 3-24 2l13-9q30-9 59-23 23-14 43-33 10-10 15-24 7-17 8-36l6-75q-1-7 2-15" fill="#000000"/><use transform="translate(159 232)" href="#eyes-variant14-04e17d4c"/><use transform="translate(164 126)" href="#eyebrows-variant04-04e17d4c"/><use transform="translate(359 274)" href="#nose-variant05-04e17d4c"/><use transform="translate(223 402)" href="#mouth-sad07-04e17d4c"/></g><g id="hair-variant12-04e17d4c"><use transform="translate(131 168)" href="#head-variant03-04e17d4c"/><path d="M565 114a213 213 0 0 1 55 22l3 9-13-2-30-3q-32 2-62 16 24 0 47 5 45 8 77 39 27 24 37 59 7 29 0 58a127 127 0 0 1-73 85l-20 8q-3 1-4-1 1-14 5-27l3-24-5-33-9 20q-14 26-40 41-20 12-42 17-27 6-56 9h-19l-4-4 7-10 14-29 8-25q4-21 5-42-17 35-41 66a299 299 0 0 1-67 59q-19 11-40 18-8 3-16 1l1-13 4-31q-10 24-16 50-5 41 5 83 2 7 2 15-12 3-23-2-42-17-59-60-2-3-7-5-14-9-23-23-13-22-16-48a204 204 0 0 1 29-137q17-28 42-52a146 146 0 0 1 75-38q14-2 29-7l28-9c27-10 50-24 77-36a229 229 0 0 1 132-19" fill="#000000"/></g><g id="hairAccessories-flowers-04e17d4c"><path d="M185 7c8-2 18 4 19 12q3 8-1 17-5 11-18 9c-9 0-16-9-15-18q-1-5 3-11 4-7 12-9" fill="#000000"/><path d="M186 16q10-1 13 9c2 8-6 15-14 14q-11-5-7-17 3-4 8-6" fill="white"/><path d="M130 3q7-4 14-2 6 2 9 8 5 11 3 22 12 3 17 14c3 9 1 21-6 27q-9 7-20 4l-3 11q-5 8-15 10-12 0-22-7-7-6-8-15l-7-2v14q9 3 14 12 5 8 3 17a31 31 0 0 1-24 23q0 8-3 12-6 7-14 9-11 3-20-2-8-5-12-14H21q-11-2-18-11-8-18 7-32-3-9-1-19 4-9 10-14 7-6 16-5l11 3q7-8 17-11-6-3-11-10-5-11 1-23 5-8 15-9 7-3 13-1 7 2 10 8 12-15 30-10 4-5 9-7M85 50l-9 6 8 4z" fill="#000000"/><path d="M64 20q4-3 10-1 10 3 11 15-1 9-9 14c-9 5-22-2-22-13q1-10 10-15m72-11q9 0 13 8 4 11 0 22 9 3 13 12 2 9-4 16-7 6-17 4-3 11-14 16-8 3-15-4-6-6-7-16-6 0-11-4-6-8-1-17l7-6q-3-7-4-15 2-8 9-10 9-1 16 5 5-10 15-11M84 71q3 12-3 23 8 1 13 4 7 6 8 15 0 8-6 13-9 5-19 6 3 7-1 13c-4 7-14 9-21 5q-10-5-12-16-10 3-20 2-6-2-11-7-5-9 1-18l9-7q-7-12-4-25 4-8 12-8 10 1 18 7 4-12 15-16c8-3 18 0 21 9" fill="white"/></g><clipPath id="clip-04e17d4c"><rect width="980" height="980" rx="0" ry="0"/></clipPath></defs><g clip-path="url(#clip-04e17d4c)"><rect width="980" height="980" fill="#b6e3f4"/><use transform="translate(76 3)" href="#hair-variant12-04e17d4c"/><use transform="translate(183 329)" href="#hairAccessories-flowers-04e17d4c"/></g></svg>