<svg xmlns="http://www.w3.org/2000/svg" viewBox="0 0 980 980" fill="none" shape-rendering="auto" aria-hidden="true"><!-- Generated by DiceBear (https://www.dicebear.com) --><metadata xmlns:rdf="http://www.w3.org/1999/02/22-rdf-syntax-ns#" xmlns:xsi="http://www.w3.org/2001/XMLSchema-instance" xmlns:dc="http://purl.org/dc/elements/1.1/" xmlns:dcterms="http://purl.org/dc/terms/"><rdf:RDF><rdf:Description><dc:title>Lorelei</dc:title><dc:creator>Lisa Wischofsky</dc:creator><dc:source xsi:type="dcterms:URI">https://www.figma.com/community/file/1198749693280469639</dc:source><dcterms:license xsi:type="dcterms:URI">https://creativecommons.org/publicdomain/zero/1.0/</dcterms:license><dc:rights>Remix of “Lorelei” (https://www.figma.com/community/file/1198749693280469639) by “Lisa Wischofsky”, licensed under “CC0 1.0” (https://creativecommons.org/publicdomain/zero/1.0/)</dc:rights></rdf:Description></rdf:RDF></metadata><defs><g id="eyes-variant02-90c5c9c1"><path d="M314 9q12-2 21 7 7 5 7 12-1 9-10 8c-6-1-7-6-12-9q-4-3-9-4 10 17 3 35-4 13-17 19-10 4-18-5-6-8-6-20-5 7-7 15l-3 5q-2-8 1-17 9-25 31-39 9-5 19-7M102 21c26 1 51 17 63 39l3 10q-1 3-3 1l-7-8-11-13q3 17-8 31-10 12-24 10c-14-1-25-12-28-25q-2-16 7-30-21 5-39 17-3 3-2 7l9 11q16 14 37 21 6 0 11 4-10 4-19 1-18-4-34-18-9-8-13-19c-1-4-5-6-4-10q2-8 9-12 23-18 53-17" fill="#000000"/><path d="M315 67q1 6-3 11-7 9-18 11-14 3-25-2-4-2-3-6l8 1q16 0 31-8z" fill="#000000"/></g><g id="eyebrows-variant05-90c5c9c1"><path d="M106 19q25 2 44 15 7 5 10 12 2 4-3 5-5-1-8-4-17-14-38-14-11 1-23 5-22 5-38 22-3 6-10 8-9 2-10-8 0-6 5-10 19-22 48-30 12-3 23-1m205 11q8 3 13 10 6 5 5 11-2 11-12 8c-4-1-6-7-10-10q-6-6-13-9-18-4-32 9l-9 9q1-10 9-17c12-13 32-17 49-11" fill="#000000"/></g><g id="nose-variant06-90c5c9c1"><path d="M54 97q0 13-10 23-5 5-14 6-9-1-19-5-6-2-11-6l5-4c9-1 17 3 25 4q6-1 9-6 7-8 15-12" fill="#000000"/></g><g id="mouth-happy15-90c5c9c1"><path d="M235 29q5 1 6 5 3 10-5 19c-5 4-13 8-16 15q-4 6-11 10-10 7-24 7-14-3-26-8l-33-4-9-1q-6 2-13 1t-13-3c-10-1-17 5-26 4q-9-3-10-13 0-9 5-18l-13 6q0-4 3-7 5-6 13-8 3-1 8 1 4 3 2 8-5 9-5 18 2 4 8 3 7-3 16-2l10 2 19-2 21 3 24 6c7 2 13 7 21 5q9-2 16-9 5-5 8-11l15-10 5-5 3-9z" fill="#000000"/></g><g id="head-variant04-90c5c9c1"><path d="M299 0a231 231 0 0 1 219 204q2 15 0 30 0 5-4 8-4-15-5-29-3-35-16-68A220 220 0 0 0 271 8q-64 6-117 44l-18 13a221 221 0 0 0-78 164q2 34 16 64l17-1q5 3 2 7l-6 1q-24 2-42 18-14 13-17 31-3 24 9 44 14 24 40 34 20 8 43 4 6-1 11 1v3q-7 7-18 7-25 3-48-8a86 86 0 0 1-47-58q-5-29 10-53 12-18 34-26-10-21-12-43-3-27-1-53 3-20 9-38a227 227 0 0 1 99-122c41-28 92-43 142-41" fill="#000000"/><path d="M338 13a220 220 0 0 1 171 200q1 15 5 29l-2 17v22q-4 8-5 15l-1 23-1 65q0 32-10 61-6 19-19 34-14 18-33 32-17 14-37 24l-22 14-12 8 9-3q-4 19-4 37-1 13 7 22 10 12 25 20 26 16 55 25 11 10 14 25 2 14-5 26-8 15-22 25-20 13-43 22-44 15-92 19-63 5-124-8-26-5-49-17-17-7-28-21-9-9-12-22-2-16 6-30 32-20 49-54 7-17 7-34 2-24 0-47-2-31-8-61 16 18 36 32 26 16 56 26 30 11 63 17 12 4 25 4l8-2q2-1 2-4-9 1-17-2-45-10-87-26-29-10-53-27-26-20-47-47-5-9-12-16v-4q-5-2-11-1-23 4-43-4-26-10-40-34-12-20-9-44 3-18 17-31 18-16 42-18l6-1q3-4-2-7l-17 1q-14-30-16-64 1-21 5-41 7-31 22-59 19-36 51-64l18-13a230 230 0 0 1 184-39" fill="#ffffff"/><path d="M512 281q3 6 2 13l1 29q2 40 0 80c-3 31-14 63-36 86q-38 43-93 63l1 8 1 35q2 8 8 13l26 19 32 20 24 12 4 3-18-4q-29-9-55-25-15-8-25-20-8-9-7-22l4-37-9 3 12-8 22-14q20-11 37-24 19-14 33-32 13-15 19-34 10-29 10-61l1-65 1-23q1-7 5-15M82 343c5 5 4 14 0 19l-3 7 7 6 19 9q-1 6-7 5-10-1-19-6-10-4-12-16 2-8 6-14 2-7-2-12 6-3 11 2m49 93q7 7 12 16 20 27 47 47 24 16 53 27a714 714 0 0 0 104 28q0 3-2 4l-8 2q-13-1-25-4a478 478 0 0 1-119-43q-20-14-36-32 6 30 8 61 2 23 0 47 0 17-7 34-17 34-49 54-6 5-15 8l10-9q20-17 33-40 11-15 15-32 5-29 2-58l-2-59 2-10q-16-18-23-41" fill="#000000"/><use transform="translate(159 232)" href="#eyes-variant02-90c5c9c1"/><use transform="translate(164 126)" href="#eyebrows-variant05-90c5c9c1"/><use transform="translate(359 274)" href="#nose-variant06-90c5c9c1"/><use transform="translate(223 402)" href="#mouth-happy15-90c5c9c1"/></g><g id="hair-variant48-90c5c9c1"><path d="m548 104 8 5q3 2 1 3l-5 4-32 14q-22 10-41 25h18q49 0 90 26 34 20 53 55 16 30 15 65v5a163 163 0 0 1 18 63q-1 20-9 39-5 14-17 24-11 12-26 14-5 1-9-3-2-4-1-9l11-56q-12 14-27 23-6 3-13 3l-1-5q3-16-1-33-6-44-31-80l2 31q1 30-11 59-9 22-28 39-4 4-10 3-2 1-3-2 5-25 4-49-15 30-47 46-9 6-19 2-1-5 1-9a293 293 0 0 0 8-79q-13 22-32 40-18 19-42 33-14 9-31 11-6 0-12-4h-1l3-16q3-18 2-37-1 9-5 20-5 14-16 26l-8 6q-3 0-2-2l5-13q11-20 12-43a327 327 0 0 1-38 62l-5 6-2 18-1 17q22 28 31 61 6 19 5 40a203 203 0 0 1-17 81q7 25 0 49-12 35-41 60-20 18-46 29-17 7-34 5l-9-4 5-10v-19q-3-20-14-37l-19-26q-8-13-11-28-3-12-1-23l-5 16q-4 18-1 36 3 12 8 21l9 10-10-3q-9-6-15-17-6-16-7-33 0-34 20-60 13-15 32-23l16-4q15-4 31-4-36-42-55-96a247 247 0 0 1 15-190 226 226 0 0 1 123-106q33-15 69-20 23-3 45 2a155 155 0 0 1 115-58q19-1 36 4m50 454q12 0 21 7 11 7 17 19l11 17q14 26 15 54t-14 51q-10 15-27 24l12 12 3 7-6 3q-19 3-37-7-21-11-32-31l9 24q4 5 5 12l-7-2q-9-7-15-18-10-14-13-31-2-25 3-48l5-17q8-32 27-59 9-13 23-17" fill="#000000"/><use transform="translate(131 168)" href="#head-variant04-90c5c9c1"/><path d="M527 100q12 1 23 5l8 5q-1 4-6 6l-32 14q-22 10-41 25 35-2 68 8 41 12 71 43 29 29 36 69 4 31-6 60-15 42-53 66-6 3-13 3l-1-2q2-22-2-44-7-40-30-72 5 33-1 65-7 32-29 57-5 7-14 10-4 1-6-1l3-16 1-34a99 99 0 0 1-57 49q-4 1-9-1 0-7 2-13a309 309 0 0 0 7-75q-17 30-44 51-17 15-35 25-12 6-26 8-6 0-12-4v-7q6-23 5-47l-6 22q-6 13-15 24l-8 7q-2 1-3-2 1-6 5-13 11-20 12-43a273 273 0 0 1-42 66q-3 3-2 5l-2 42v46l-2 11-8 4q-12 2-25-4-12-6-21-15t-15-21l-7-7a138 138 0 0 1-51-110q1-41 20-77 25-48 69-82 50-38 111-49 27-5 53 1 8-10 16-17a151 151 0 0 1 114-41" fill="#000000"/></g><clipPath id="clip-90c5c9c1"><rect width="980" height="980" rx="0" ry="0"/></clipPath></defs><g clip-path="url(#clip-90c5c9c1)"><rect width="980" height="980" fill="#c0aede"/><use transform="translate(76 3)" href="#hair-variant48-90c5c9c1"/></g></svg>