<svg xmlns="http://www.w3.org/2000/svg" viewBox="0 0 980 980" fill="none" shape-rendering="auto" aria-hidden="true"><!-- Generated by DiceBear (https://www.dicebear.com) --><metadata xmlns:rdf="http://www.w3.org/1999/02/22-rdf-syntax-ns#" xmlns:xsi="http://www.w3.org/2001/XMLSchema-instance" xmlns:dc="http://purl.org/dc/elements/1.1/" xmlns:dcterms="http://purl.org/dc/terms/"><rdf:RDF><rdf:Description><dc:title>Lorelei</dc:title><dc:creator>Lisa Wischofsky</dc:creator><dc:source xsi:type="dcterms:URI">https://www.figma.com/community/file/1198749693280469639</dc:source><dcterms:license xsi:type="dcterms:URI">https://creativecommons.org/publicdomain/zero/1.0/</dcterms:license><dc:rights>Remix of “Lorelei” (https://www.figma.com/community/file/1198749693280469639) by “Lisa Wischofsky”, licensed under “CC0 1.0” (https://creativecommons.org/publicdomain/zero/1.0/)</dc:rights></rdf:Description></rdf:RDF></metadata><defs><g id="eyes-variant03-6e18e8ea"><path d="m326 32 10 2q2 2 0 3-4 4-9 4l-23 4-4 20q-3 8-11 9-8-1-11-7-6-8-7-18-6 1-11-1c-1-3 3-4 4-5l40-9zm-185 7q8-1 16 3l3 3-21 4q-2 13-8 25-4 5-9 5-9-2-14-9-6-8-8-18l-55 2q-5 0-6-3 6-4 11-4l33-4q29-4 58-4" fill="#000000"/><path d="m295 47-7 16q-5-6-8-15zm-167 3-6 18-4-2-11-15 18-1z" fill="white"/></g><g id="eyebrows-variant13-6e18e8ea"><path d="m327 63 2 2-14 14-21 15-27 18q-6 5-13 7l-8 1-11 20h-2q-2-10 1-20 2-10 8-16l10-4 31-21q12-9 26-13zM10 72q15 0 28 2l26 7 15 1 24 2q11 4 23 6l34 11 3-5q3-2 5 1 7 13 11 25 2 8-6 9-7 0-12-6l-11-9-30-9-20-5-15-3-15-4-24-9c-10-4-20-4-29-9q-5-1-7-5" fill="#000000"/></g><g id="nose-variant06-6e18e8ea"><path d="M54 97q0 13-10 23-5 5-14 6-9-1-19-5-6-2-11-6l5-4c9-1 17 3 25 4q6-1 9-6 7-8 15-12" fill="#000000"/></g><g id="mouth-happy16-6e18e8ea"><path d="M33 13q15 0 31 5c23 5 46 13 69 16 22 2 42-8 65-2q9 2 14 11 6 7 3 15-3 11-13 17-12 6-24 8l-30 2q-15 1-29-2l-31-7-26-8q-12-2-23-8-9-4-17-10-11-9-8-23 4-13 19-14m146 26-38 5q0 14-5 28l-2 5 20 1 19-2V63zm-87-4q2 8-1 15-1 9-5 18l22 5 22 4q-3-17 3-34-20-2-41-8m95 3q0 10-3 20-2 9-6 17 9-1 18-6 8-4 11-13v-8l-8-8zM46 23v11l-4 20 18 6 22 7q0-18 4-34zm-8-1H28q-6 3-8 8l3 9q5 6 12 11-1-15 3-28M6 4q6-3 13-4-7 11-19 13 1-5 6-9" fill="#000000"/></g><g id="glasses-variant03-6e18e8ea"><path d="M102 35h35q26 3 53 10l31 9q11 3 22 3l15-2q6-1 11-5 15-7 30-9 20-4 41-3l29 2c8 1 15 6 24 7q3 0 7 4 1 4-3 7l-12 1q2 29-12 55-8 17-24 28-16 9-33 9-19 1-34-7-14-7-22-21-7-16-5-34 0-11 3-23-14 3-28 1l-13-1v21q-7 28-25 48-9 10-21 16-19 10-39 14a94 94 0 0 1-75-16q-15-11-25-26-10-17-11-37-1-12 3-22l-11 5q-2 1-4-1t1-5q11-8 24-13 14-6 29-9zm11 16H74l-13 1-24 6-2 19a66 66 0 0 0 32 62q10 7 22 10 12 5 25 5a94 94 0 0 0 53-15q21-13 28-37 6-19 4-38l-11-2q-38-7-75-11m215 2c-19-1-38 6-56 11q-3 10-3 19-2 15 2 29 5 14 18 20 12 6 25 5 16 1 30-9 14-13 19-32 5-18 4-38c-13 0-26-5-39-5" fill="#000000"/></g><g id="head-variant01-6e18e8ea"><path d="M331 12q63 11 114 48 42 32 65 81 20 43 18 90 0 23-7 44l-2 1 1-21q2-45-13-87-17-46-51-79c-41-40-98-63-155-64a243 243 0 0 0-196 95 207 207 0 0 0-41 139l3 24c8 0 19 1 25 8l-4 2q-8 2-16 1-19 2-33 14a64 64 0 0 0-18 39c-4 32 13 65 40 83q25 17 55 8 6-3 14-2 3 2 5 7 8 19 21 37a251 251 0 0 0 68 63q14 11 29 17 28 12 57 20l32 8 13 3-4 1q-37 2-72-10-18-4-34-12a306 306 0 0 1-85-63l3 28q2 26-6 52-6 19-20 33-14 16-33 27-15 10-32 18-7 4-16 4l9-8 30-21 23-16q11-10 18-23 10-15 13-33 3-22 3-43v-28c-10-13-23-29-27-45-17 8-38 6-55-1q-27-11-43-34-18-24-22-55-2-32 16-56 14-17 35-21-6-22-6-44 0-38 13-74 22-58 70-99a249 249 0 0 1 198-56" fill="#000000"/><path d="M456 89q35 34 51 79 15 42 13 87l-1 21-5 15q-2 6-2 13l2 56-1 62-3 48q-3 24-15 44-15 29-43 45-20 11-41 16l-39 10-16 3q0 3 2 3 13 6 27 4-6 11-2 21 6 11 17 15 17 7 36 8 12 10 16 25 3 12-2 23-8 15-24 23-20 11-42 18-60 14-121 12-52-1-101-13-25-6-48-17-18-8-32-23-8-9-10-22 17-8 32-18 19-11 33-27 14-14 20-33 8-26 6-52l-3-28q12 13 23 22 28 24 62 41 16 8 34 12 35 12 72 10l4-1-13-3-32-8q-29-8-57-20-15-6-29-17-18-11-34-26a251 251 0 0 1-55-74q-2-5-5-7-8-1-14 2-30 9-55-8a88 88 0 0 1-40-83q3-23 18-39 14-12 33-14 8 1 16-1l4-2c-6-7-17-8-25-8l-3-24 2-46q8-52 39-93 35-47 87-72 52-24 109-23c57 1 114 24 155 64" fill="#ffffff"/><path d="M514 291q4 1 4 6 4 16 5 34l1 21q3 33 2 65 0 32-5 65-6 27-22 50-22 33-58 49-24 9-48 13v15l5 6q17 8 36 10 18 4 36 12-5 3-11 4-12 1-23-2-19-1-36-8-12-4-17-15-3-10 2-21-14 2-27-4-2 0-2-3l16-3 39-10q21-5 41-16 28-16 43-45 12-20 15-44l3-48 1-62-2-56q0-7 2-13M56 318q13-1 23 6 8 7 12 16 1 4-3 7l-12 9c-7 6-7 19 0 24q10 8 21 11 4 1 6 4l-5 3q-16 0-28-9-7-5-10-13-3-13 5-24 7-8 17-12-4-9-13-13l-23-5z" fill="#000000"/><use transform="translate(159 232)" href="#eyes-variant03-6e18e8ea"/><use transform="translate(164 126)" href="#eyebrows-variant13-6e18e8ea"/><use transform="translate(359 274)" href="#nose-variant06-6e18e8ea"/><use transform="translate(223 402)" href="#mouth-happy16-6e18e8ea"/><use transform="translate(152 197)" href="#glasses-variant03-6e18e8ea"/></g><g id="hair-variant40-6e18e8ea"><path d="M536 163c34 15 67 37 90 67q9 9 14 20l5 6q26 24 45 53 17 28 27 60 5 27 0 54l-7 24q-3 8-9 13-3 3-4 0l2-9q5-21 5-42 0-18-5-34-6-25-19-47l3 12c8 31 3 66-10 95v3q12 15 20 33 14 24 24 50 13 37 16 76 3 29 1 60a205 205 0 0 1-24 71q-2 4-7 5l-1-2 3-12v-14q-3-25-12-48-3 25-10 49-9 33-24 65-14 30-36 54-28 28-66 39-22 6-46 4-14-1-27-7l-56-14q-30-6-61-9-33-2-67-1-11 1-23-3l-5 1-8-4q-28-16-51-40-30-33-50-74a459 459 0 0 1-46-167l-5 33q-3 54 14 107a632 632 0 0 0 46 107l6 10h-2q-5-3-8-8a290 290 0 0 1-59-102 355 355 0 0 1-16-157q5-44 20-85l3-11q3-27 8-53 12-67 46-123 14-22 32-40l14-14q21-20 45-35 54-31 115-39c54-6 110 1 160 23" fill="#000000"/><use transform="translate(131 168)" href="#head-variant01-6e18e8ea"/><path d="M494 148q60 16 108 56 20 18 35 41l5 8 28 28a236 236 0 0 1 48 98q3 11 1 23 0 23-8 44-4 9-11 15-2 1-3-1l1-8q6-23 6-46-1-16-5-30-6-26-19-48l3 11q8 33 0 67-8 30-25 56-6 9-15 16-4 3-9 2l-1-5v-20q-4-55-32-100a318 318 0 0 0-76-89l-9-6 8 19q6 24 8 49t2 51q-2 44-18 87-8 21-21 41-16 29-43 48-4 3-9 2v-2l17-19q32-42 42-93 9-38 5-76l-2 7q-7 30-21 58-10 21-23 41a227 227 0 0 1-76 71l-15 5q-4 1-6-2 2-9 7-18a267 267 0 0 0 18-45q-19 24-46 41-24 13-53 14-8 0-14-5-3-5 0-10l11-32q7-25 11-49l-16 17-19 18-1 23a756 756 0 0 0 32 212q17 44 42 84l6 13q1 3-4 3l-14-9q-25-22-47-46a433 433 0 0 1-96-326l-2-5a181 181 0 0 1-13-130q15-47 50-82 42-40 97-60c58-20 121-22 181-7" fill="#000000"/></g><clipPath id="clip-6e18e8ea"><rect width="980" height="980" rx="0" ry="0"/></clipPath></defs><g clip-path="url(#clip-6e18e8ea)"><rect width="980" height="980" fill="#d1d4f9"/><use transform="translate(76 3)" href="#hair-variant40-6e18e8ea"/></g></svg>