<svg xmlns="http://www.w3.org/2000/svg" viewBox="0 0 980 980" fill="none" shape-rendering="auto" aria-hidden="true"><!-- Generated by DiceBear (https://www.dicebear.com) --><metadata xmlns:rdf="http://www.w3.org/1999/02/22-rdf-syntax-ns#" xmlns:xsi="http://www.w3.org/2001/XMLSchema-instance" xmlns:dc="http://purl.org/dc/elements/1.1/" xmlns:dcterms="http://purl.org/dc/terms/"><rdf:RDF><rdf:Description><dc:title>Lorelei</dc:title><dc:creator>Lisa Wischofsky</dc:creator><dc:source xsi:type="dcterms:URI">https://www.figma.com/community/file/1198749693280469639</dc:source><dcterms:license xsi:type="dcterms:URI">https://creativecommons.org/publicdomain/zero/1.0/</dcterms:license><dc:rights>Remix of “Lorelei” (https://www.figma.com/community/file/1198749693280469639) by “Lisa Wischofsky”, licensed under “CC0 1.0” (https://creativecommons.org/publicdomain/zero/1.0/)</dc:rights></rdf:Description></rdf:RDF></metadata><defs><g id="eyes-variant16-9b3e93f2"><path d="M117 20q8-1 14 3 7 8 8 18 2 15-4 30-4 10-13 14-11 2-18-7-6-10-5-22 1-13 6-24 5-8 12-12m170 7q8-3 14 3 7 8 7 18 1 13-5 25-4 7-11 10-9 1-15-5-5-5-5-12-2-14 4-26 3-8 11-13" fill="#000000"/></g><g id="eyebrows-variant02-9b3e93f2"><path d="M144 28q12 0 23 6 7 5 10 13l-2 3-6-3q-14-7-32-6-14 0-27 5l-24 9-19 8-40 10q-10 5-17 13L0 94q2-12 10-22l13-13q12-9 26-11 15-2 29-8l19-6 23-5q12-2 24-1m166 14 22 3v3q-10 9-24 10c-11 2-25-1-36 4q-3 0-5 3-13 16-21 33c-2-7 3-15 5-22l10-18q7-16 23-17 14-1 26 1" fill="#000000"/></g><g id="freckles-variant01-9b3e93f2"><path d="M339 1q6-3 7 4-1 5-6 3c-3 0-4-6-1-7M29 9q4-2 7 1 5 5 0 9-4 5-9 0c-3-3-2-9 2-10m259 1q3-3 4 1 0 2-2 3-5 0-2-4m24 0q9-2 8 7-3 6-9 2-5-6 1-9m-173 2q4-2 5 3 0 4-5 3c-2 0-3-5 0-6m216 1q4-3 7 3-2 5-6 3t-1-6M75 13q8 2 6 9-2 4-6 4-3 0-5-4-3-8 5-9M3 21q5-1 6 5c0 3-5 5-7 2q-4-4 1-7m331 5q6-3 8 5-2 6-9 4-5-5 1-9m-221 3q4 1 5 5l-2 3q-5 3-8-2 0-6 5-6M47 42q6 1 8 7-1 6-7 7-5 0-7-5-1-7 6-9" fill="#000000"/></g><g id="nose-variant02-9b3e93f2"><path d="M48 108v1q-6 13-20 18-5 2-9-1v-4q10-8 24-12z" fill="#000000"/></g><g id="mouth-sad07-9b3e93f2"><path d="M183 40q15-3 29-2 16 0 27 10 6 6 10 13 3 5-2 10-9 5-20 5h-42l-46 5q-14 2-29 2l4-5 9-9q13-11 29-17 15-7 31-12m-13 12a254 254 0 0 0-43 21q20-4 42-6-2-7 1-15m40-5q-16-2-33 3l-1 17 30-1q-2-10 4-19m6 1q1 10-5 18 15 1 29-1-8-10-18-16zm19-36q3-2 6 1 6 4 8 11 5 8 3 17-4-3-5-7l-11-16q-2-3-1-6" fill="#000000"/></g><g id="glasses-variant04-9b3e93f2"><path d="M318 33q24-2 49-2 16 1 30 4 7 3 4 8l-6 6q-4 4-9 4v21l-3 25-5 22q-5 14-19 22-9 5-21 7-17 2-36 0-8 1-15-2-11-2-19-11-5-8-8-17-3-13-4-27-1-7 1-16-14-4-28-1-7 0-13 5l-2 30-5 21q-5 10-13 18-10 9-23 13a256 256 0 0 1-89 10q-13-2-27-7a53 53 0 0 1-22-16 99 99 0 0 1-18-51q-2-15-1-32-9-1-15-6-1-5 3-6l13-6q21-7 42-10l31-4 47-1 34 2q16 1 31 6l10 6 10 11q8 2 17 2l18 1q2-8 7-13 12-9 26-12 13-3 28-4M192 53q-60-8-121-2l-36 5-1 20q-1 21 4 40l8 18q5 8 11 14 8 7 18 9 13 4 28 4 17 0 34-4l26-6q12-4 20-11 8-9 11-21l5-33q0-12 4-25-3-7-11-8m183-10-23 1q-19 0-38 4l-28 7-9 4q-5 25-3 51 2 13 9 22c4 6 13 6 20 8q15 4 32 1 12-2 23-11 6-6 8-15l4-24c3-17 1-32 5-48" fill="#000000"/></g><g id="head-variant01-9b3e93f2"><path d="M331 12q63 11 114 48 42 32 65 81 20 43 18 90 0 23-7 44l-2 1 1-21q2-45-13-87-17-46-51-79c-41-40-98-63-155-64a243 243 0 0 0-196 95 207 207 0 0 0-41 139l3 24c8 0 19 1 25 8l-4 2q-8 2-16 1-19 2-33 14a64 64 0 0 0-18 39c-4 32 13 65 40 83q25 17 55 8 6-3 14-2 3 2 5 7 8 19 21 37a251 251 0 0 0 68 63q14 11 29 17 28 12 57 20l32 8 13 3-4 1q-37 2-72-10-18-4-34-12a306 306 0 0 1-85-63l3 28q2 26-6 52-6 19-20 33-14 16-33 27-15 10-32 18-7 4-16 4l9-8 30-21 23-16q11-10 18-23 10-15 13-33 3-22 3-43v-28c-10-13-23-29-27-45-17 8-38 6-55-1q-27-11-43-34-18-24-22-55-2-32 16-56 14-17 35-21-6-22-6-44 0-38 13-74 22-58 70-99a249 249 0 0 1 198-56" fill="#000000"/><path d="M456 89q35 34 51 79 15 42 13 87l-1 21-5 15q-2 6-2 13l2 56-1 62-3 48q-3 24-15 44-15 29-43 45-20 11-41 16l-39 10-16 3q0 3 2 3 13 6 27 4-6 11-2 21 6 11 17 15 17 7 36 8 12 10 16 25 3 12-2 23-8 15-24 23-20 11-42 18-60 14-121 12-52-1-101-13-25-6-48-17-18-8-32-23-8-9-10-22 17-8 32-18 19-11 33-27 14-14 20-33 8-26 6-52l-3-28q12 13 23 22 28 24 62 41 16 8 34 12 35 12 72 10l4-1-13-3-32-8q-29-8-57-20-15-6-29-17-18-11-34-26a251 251 0 0 1-55-74q-2-5-5-7-8-1-14 2-30 9-55-8a88 88 0 0 1-40-83q3-23 18-39 14-12 33-14 8 1 16-1l4-2c-6-7-17-8-25-8l-3-24 2-46q8-52 39-93 35-47 87-72 52-24 109-23c57 1 114 24 155 64" fill="#ffffff"/><path d="M514 291q4 1 4 6 4 16 5 34l1 21q3 33 2 65 0 32-5 65-6 27-22 50-22 33-58 49-24 9-48 13v15l5 6q17 8 36 10 18 4 36 12-5 3-11 4-12 1-23-2-19-1-36-8-12-4-17-15-3-10 2-21-14 2-27-4-2 0-2-3l16-3 39-10q21-5 41-16 28-16 43-45 12-20 15-44l3-48 1-62-2-56q0-7 2-13M56 318q13-1 23 6 8 7 12 16 1 4-3 7l-12 9c-7 6-7 19 0 24q10 8 21 11 4 1 6 4l-5 3q-16 0-28-9-7-5-10-13-3-13 5-24 7-8 17-12-4-9-13-13l-23-5z" fill="#000000"/><use transform="translate(159 232)" href="#eyes-variant16-9b3e93f2"/><use transform="translate(164 126)" href="#eyebrows-variant02-9b3e93f2"/><use transform="translate(141 343)" href="#freckles-variant01-9b3e93f2"/><use transform="translate(359 274)" href="#nose-variant02-9b3e93f2"/><use transform="translate(223 402)" href="#mouth-sad07-9b3e93f2"/><use transform="translate(152 197)" href="#glasses-variant04-9b3e93f2"/></g><g id="hair-variant15-9b3e93f2"><path d="M395 151a380 380 0 0 1 208 40q4 3 6 8l15 33a1549 1549 0 0 1 56 141l4 14q4-32-6-63l-10-28 3 1q11 9 18 23 8 14 11 29c4 18 1 38-1 57l-1 35 4 45q1 20 4 39l5 35 8 40 8 48 4 28a214 214 0 0 1-11 101q-3 9-10 14l-4 1q-2-3-2-7 1-12-2-25-6-26-20-51-2 14-8 26-10 26-32 42-4 5-9 4l1-4 11-17 11-21q-21 24-49 41-28 16-61 17-13-2-25-6-10 0-19-3-38-9-77-11-49-3-97 11 6 8 14 12 3 2 2 5-5 3-9 2-19 1-37-8l-8-2q-18 5-37 5c-22-1-44-14-59-31v25q1 5-3 9-5 1-9-1-17-7-28-21l-15-19-10-14q-15-2-29-10-14-11-21-27-14-31-11-64 2-42 14-81l26-81 11-47 13-72q6-28 17-54 6-15 15-27l25-39q12-18 26-32a206 206 0 0 1 70-44q27-12 57-9 26-10 53-12M133 448l-5 21q-13 48-30 95-15 43-19 88-3 28 7 54 6 18 18 29 11 7 21 9-8-14-14-30a167 167 0 0 1-9-57q2-45 11-88l12-61 6-38z" fill="#000000"/><use transform="translate(131 168)" href="#head-variant01-9b3e93f2"/><path d="M407 151a396 396 0 0 1 196 41q12 5 21 14 49 39 70 98 11 37 8 76l-3 4q-7 9-15 16l-5 2-6-2q-15 0-30-4-50-13-97-35-48-22-93-51-30-19-57-42l-1 26q-2 22-9 44a178 178 0 0 1-106 110l-4 100q-2 59 4 119 6 48 28 92 11 23 30 39 6 2 6 6-3 4-9 4c-17 1-34-7-49-14q-35-18-57-51-14-24-22-50-12-43-14-88-1-40 1-79l4-54-3-2q-23-8-35-30-17-26-16-57-1-36 12-68 25-62 73-107 30-28 71-41 21-6 41-4l9-3q28-8 57-9m-31 158-7 15q-16 35-44 61l-22 16-22 11-1 16 6-1q15-7 28-17 22-18 37-40 14-24 23-51z" fill="#000000"/></g><clipPath id="clip-9b3e93f2"><rect width="980" height="980" rx="0" ry="0"/></clipPath></defs><g clip-path="url(#clip-9b3e93f2)"><rect width="980" height="980" fill="#c0aede"/><use transform="translate(76 3)" href="#hair-variant15-9b3e93f2"/></g></svg>